# xmcd CD database file
#
# Track frame offsets:
#	150
#	15123
#	55853
#	71940
#	85380
#	104240
#	119333
#	137985
#	156230
#
# Disc length: 2301 seconds
#
# Revision: 2
# Processed by: cddbd v1.5.2PL0 Copyright (c) Steve Scherf et al.
# Submitted via: CDex 1.78
#
DISCID=7f08fb09
DTITLE=Mungo Jerry - Electronically Tested
DYEAR=1971
DGENRE=Folk Rock
TTITLE0=She Rowed
TTITLE1=I Just Wanna Make Love To You
TTITLE2=In The Summertime
TTITLE3=Somebody Stole My Wife
TTITLE4=Baby Jump
TTITLE5=Follow Me Down
TTITLE6=Memoirs Of A Stockbroker
TTITLE7=You Better Leave That Whisky Alone
TTITLE8=Coming Back To You
EXTD=YEAR: 1971
EXTT0=
EXTT1=
EXTT2=
EXTT3=
EXTT4=
EXTT5=
EXTT6=
EXTT7=
EXTT8=
PLAYORDER=
